<svg width="22" height="18" viewBox="0 0 22 18" fill="none" xmlns="http://www.w3.org/2000/svg">
<path d="M21.728 2.35203C21.14 3.22802 20.396 4.00803 19.532 4.63203C19.544 4.81203 19.544 5.00403 19.544 5.19603C19.544 11.016 15.116 17.724 7.02797 17.724C4.54397 17.724 2.22797 16.992 0.271973 15.744C0.619973 15.78 0.967973 15.804 1.32797 15.804C3.39197 15.804 5.28797 15.096 6.78797 13.92C5.87039 13.901 4.98164 13.596 4.24586 13.0473C3.51009 12.4987 2.96404 11.734 2.68397 10.86C2.94797 10.908 3.22397 10.944 3.51197 10.944C3.90797 10.944 4.30397 10.884 4.66397 10.788C3.66869 10.5837 2.77431 10.0425 2.13164 9.2555C1.48896 8.46855 1.13731 7.48406 1.13597 6.46803V6.42003C1.73597 6.74403 2.40797 6.94803 3.12797 6.97203C2.52534 6.56779 2.0316 6.02127 1.69044 5.38081C1.34928 4.74035 1.17121 4.02568 1.17197 3.30002C1.17197 2.49602 1.38797 1.74003 1.77197 1.09203C3.94397 3.75603 7.18397 5.50803 10.844 5.68802C10.772 5.36403 10.724 5.02803 10.724 4.68003C10.7272 3.51409 11.1925 2.397 12.0181 1.57368C12.8437 0.750364 13.962 0.288021 15.128 0.288025C16.4 0.288025 17.54 0.816025 18.344 1.68003C19.34 1.47603 20.288 1.11602 21.14 0.612025C20.804 1.63203 20.108 2.49603 19.196 3.03603C20.0703 2.94046 20.9245 2.70971 21.728 2.35203Z" fill="white"/>
</svg>
