<svg width="23" height="16" viewBox="0 0 23 16" fill="none" xmlns="http://www.w3.org/2000/svg">
<path d="M21.7345 1.23077C21.311 0.497846 20.5318 0 19.6292 0H11.0737V1.23077H21.7345ZM0.0736694 12.3077H22.0737V13.5385H0.0736694V12.3077ZM11.0737 7.38462H22.0737V8.61539H11.0737V7.38462ZM11.0737 4.92308H22.0737V6.15385H11.0737V4.92308ZM0.0736694 9.84615H22.0737V11.0769H0.0736694V9.84615ZM2.51811 16H19.6292C20.5318 16 21.311 15.5022 21.7345 14.7692H0.412836C0.836336 15.5022 1.6155 16 2.51811 16ZM11.0737 2.46154H22.0737V3.69231H11.0737V2.46154Z" fill="#B22334"/>
<path d="M0.0420438 13.9563C0.0524327 14.0135 0.0640438 14.0707 0.0780994 14.1267C0.0939883 14.1889 0.113544 14.2486 0.134322 14.3089C0.18871 14.4683 0.25471 14.6221 0.337822 14.7661L0.339655 14.7692H21.6613L21.6625 14.7667C21.745 14.6233 21.811 14.4695 21.8654 14.3107C21.8862 14.2498 21.9064 14.1889 21.9223 14.1255C21.9363 14.0701 21.9479 14.0135 21.9583 13.9563C21.9834 13.8209 22.0005 13.6818 22.0005 13.5384H0.000488281C0.000488281 13.6818 0.0175994 13.8203 0.0420438 13.9563ZM0.000488281 11.0769H22.0005V12.3076H0.000488281V11.0769ZM0.000488281 8.61533V9.8461H22.0005V8.61533H11.0005H0.000488281ZM11.0005 6.15379H22.0005V7.38456H11.0005V6.15379ZM11.0005 3.69225H22.0005V4.92302H11.0005V3.69225ZM0.000488281 2.46148C0.000488281 2.3181 0.0188216 2.18025 0.0420438 2.04364C0.0175994 2.17964 0.000488281 2.3181 0.000488281 2.46148ZM0.339655 1.23071L0.337822 1.23379L0.339655 1.23071ZM0.0787105 1.87317C0.0939883 1.81041 0.115377 1.75071 0.134933 1.69041C0.114155 1.75071 0.0945994 1.81102 0.0787105 1.87317ZM11.0005 2.46148H22.0005C22.0005 2.3181 21.9834 2.17902 21.9583 2.04302C21.9479 1.98641 21.9369 1.92979 21.9223 1.8744C21.9058 1.81102 21.8862 1.74948 21.8648 1.68856C21.8104 1.52979 21.7444 1.37656 21.6619 1.23317C21.6625 1.23256 21.6619 1.23133 21.6613 1.23071H11.0005V2.46148Z" fill="#EEEEEE"/>
<path d="M11.0737 0H2.51811C1.16817 0 0.0736694 1.10215 0.0736694 2.46154V8.61538H11.0737V0Z" fill="#3C3B6E"/>
<path d="M1.29663 1.67748L1.6743 1.95379L1.53008 2.39994L1.90713 2.12425L2.2848 2.39994L2.14058 1.95379L2.51824 1.67748H2.05135L1.90713 1.23071L1.76352 1.67748H1.29663ZM2.51885 2.90825L2.89652 3.18456L2.7523 3.63071L3.12935 3.35502L3.50702 3.63071L3.3628 3.18456L3.74046 2.90825H3.27358L3.12935 2.46148L2.98574 2.90825H2.51885ZM4.9633 2.90825L5.34096 3.18456L5.19674 3.63071L5.5738 3.35502L5.95146 3.63071L5.80724 3.18456L6.18491 2.90825H5.71802L5.5738 2.46148L5.43019 2.90825H4.9633ZM7.40774 2.90825L7.78541 3.18456L7.64119 3.63071L8.01824 3.35502L8.39591 3.63071L8.25169 3.18456L8.62935 2.90825H8.16246L8.01824 2.46148L7.87463 2.90825H7.40774ZM2.51885 5.36979L2.89652 5.6461L2.7523 6.09225L3.12935 5.81656L3.50702 6.09225L3.3628 5.6461L3.74046 5.36979H3.27358L3.12935 4.92302L2.98574 5.36979H2.51885ZM4.9633 5.36979L5.34096 5.6461L5.19674 6.09225L5.5738 5.81656L5.95146 6.09225L5.80724 5.6461L6.18491 5.36979H5.71802L5.5738 4.92302L5.43019 5.36979H4.9633ZM7.40774 5.36979L7.78541 5.6461L7.64119 6.09225L8.01824 5.81656L8.39591 6.09225L8.25169 5.6461L8.62935 5.36979H8.16246L8.01824 4.92302L7.87463 5.36979H7.40774ZM3.74108 1.67748L4.11874 1.95379L3.97452 2.39994L4.35158 2.12425L4.72924 2.39994L4.58502 1.95379L4.96269 1.67748H4.4958L4.35158 1.23071L4.20796 1.67748H3.74108ZM6.18552 1.67748L6.56319 1.95379L6.41896 2.39994L6.79602 2.12425L7.17369 2.39994L7.02946 1.95379L7.40713 1.67748H6.94024L6.79602 1.23071L6.65241 1.67748H6.18552ZM8.62996 1.67748L9.00763 1.95379L8.86341 2.39994L9.24046 2.12425L9.61813 2.39994L9.47391 1.95379L9.85158 1.67748H9.38469L9.24046 1.23071L9.09685 1.67748H8.62996ZM1.29663 4.13902L1.6743 4.41533L1.53008 4.86148L1.90713 4.58579L2.2848 4.86148L2.14058 4.41533L2.51824 4.13902H2.05135L1.90713 3.69225L1.76352 4.13902H1.29663ZM3.97452 4.86148L4.35158 4.58579L4.72924 4.86148L4.58502 4.41533L4.96269 4.13902H4.4958L4.35158 3.69225L4.20796 4.13902H3.74108L4.11874 4.41533L3.97452 4.86148ZM6.18552 4.13902L6.56319 4.41533L6.41896 4.86148L6.79602 4.58579L7.17369 4.86148L7.02946 4.41533L7.40713 4.13902H6.94024L6.79602 3.69225L6.65241 4.13902H6.18552ZM8.62996 4.13902L9.00763 4.41533L8.86341 4.86148L9.24046 4.58579L9.61813 4.86148L9.47391 4.41533L9.85158 4.13902H9.38469L9.24046 3.69225L9.09685 4.13902H8.62996ZM1.29663 6.60056L1.6743 6.87687L1.53008 7.32302L1.90713 7.04733L2.2848 7.32302L2.14058 6.87687L2.51824 6.60056H2.05135L1.90713 6.15379L1.76352 6.60056H1.29663ZM3.97452 7.32302L4.35158 7.04733L4.72924 7.32302L4.58502 6.87687L4.96269 6.60056H4.4958L4.35158 6.15379L4.20796 6.60056H3.74108L4.11874 6.87687L3.97452 7.32302ZM6.18552 6.60056L6.56319 6.87687L6.41896 7.32302L6.79602 7.04733L7.17369 7.32302L7.02946 6.87687L7.40713 6.60056H6.94024L6.79602 6.15379L6.65241 6.60056H6.18552ZM8.62996 6.60056L9.00763 6.87687L8.86341 7.32302L9.24046 7.04733L9.61813 7.32302L9.47391 6.87687L9.85158 6.60056H9.38469L9.24046 6.15379L9.09685 6.60056H8.62996Z" fill="white"/>
</svg>
